<svg width="930" height="195" viewBox="0 0 930 195" fill="none" xmlns="http://www.w3.org/2000/svg">
<path d="M186.772 156.242V35.5787H200.978V156.242H186.772ZM257.48 159.666C241.221 159.666 230.267 148.712 230.267 132.965V80.5922H211.269V69.8095H230.267V44.1364L243.274 41.0556V69.8095H281.955V80.5922H243.274V131.596C243.274 141.352 249.265 148.369 258.678 148.369C267.407 148.369 275.452 142.037 277.163 130.912L287.775 135.362C285.378 150.423 272.2 159.666 257.48 159.666ZM341.375 159.666C313.819 159.666 293.623 139.64 293.623 112.085C293.623 85.5557 312.108 66.3864 337.781 66.3864C363.112 66.3864 379.714 85.5557 380.056 112.256C380.056 113.796 380.056 115.679 379.885 117.39H307.144C309.027 135.362 322.891 147.856 341.546 147.856C355.068 147.856 366.535 140.839 371.327 131.425L382.624 136.046C376.975 149.91 360.716 159.666 341.375 159.666ZM307.316 105.923H366.193C364.481 88.2942 353.356 78.3672 337.61 78.3672C321.521 78.3672 309.712 89.4923 307.316 105.923ZM395.326 156.242V69.8095H406.623L407.992 82.4749H408.163C413.298 72.3768 424.594 66.3864 438.457 66.3864C452.15 66.3864 461.392 72.7191 465.842 83.8442H466.013C473.715 71.6922 485.696 66.3864 498.532 66.3864C517.359 66.3864 528.484 78.3672 528.484 98.7346V156.242H515.306V99.5904C515.306 86.2403 507.604 78.3672 494.596 78.3672C478.165 78.3672 468.409 90.6903 468.409 108.148V156.242H455.402V99.5904C455.402 86.2403 447.7 78.3672 434.521 78.3672C418.09 78.3672 408.334 90.6903 408.334 108.148V156.242H395.326ZM544.752 192.185V69.8095H556.048L557.417 84.6999H557.589C564.948 73.2326 576.758 66.3864 591.306 66.3864C616.637 66.3864 635.293 86.0692 635.293 113.112C635.293 139.983 616.637 159.666 591.477 159.666C577.1 159.666 565.462 152.991 557.931 141.865H557.76V192.185H544.752ZM589.766 147.685C608.593 147.685 622.114 132.623 622.114 113.112C622.114 93.0865 608.421 78.3672 589.766 78.3672C571.11 78.3672 557.417 93.4288 557.417 113.112C557.417 132.623 571.11 147.685 589.766 147.685ZM677.29 159.666C657.607 159.666 643.915 149.054 643.915 133.65C643.915 119.787 654.868 108.662 682.938 105.238L704.332 102.671C708.611 102.158 711.349 99.7615 711.349 95.9961C711.349 85.2134 701.08 78.1961 686.019 78.1961C669.759 78.1961 658.292 88.6365 657.607 98.9057L645.797 93.9423C647.338 79.7365 664.111 66.3864 686.532 66.3864C708.611 66.3864 724.186 78.7095 724.186 98.05V156.242H712.376L711.007 141.865H710.836C704.674 152.819 692.694 159.666 677.29 159.666ZM679.515 147.856C697.657 147.856 711.007 136.046 711.007 119.273V113.112L684.307 116.363C663.426 118.931 656.922 125.606 656.922 133.479C656.922 142.208 666.336 147.856 679.515 147.856ZM776.248 159.666C754.682 159.666 736.882 148.54 735.342 130.056L748.178 127.489C749.205 139.469 760.844 147.856 776.248 147.856C789.769 147.856 800.209 141.523 800.209 132.623C800.209 125.948 793.876 121.84 779.328 118.931L765.636 116.192C747.665 112.427 739.963 105.238 739.963 92.573C740.134 77.5115 753.484 66.3864 771.969 66.3864C790.111 66.3864 803.632 76.1422 806.884 90.1769L794.39 93.6C793.192 84.5288 784.121 77.8538 771.798 77.8538C760.844 77.8538 752.799 84.5288 752.628 91.8884C752.628 98.2211 757.763 101.815 769.744 104.383L783.778 107.121C804.146 111.4 812.875 118.588 812.875 131.425C812.875 147.685 797.128 159.666 776.248 159.666ZM860.655 159.666C839.089 159.666 821.289 148.54 819.749 130.056L832.585 127.489C833.612 139.469 845.251 147.856 860.655 147.856C874.176 147.856 884.616 141.523 884.616 132.623C884.616 125.948 878.284 121.84 863.735 118.931L850.043 116.192C832.072 112.427 824.37 105.238 824.37 92.573C824.541 77.5115 837.891 66.3864 856.376 66.3864C874.518 66.3864 888.039 76.1422 891.291 90.1769L878.797 93.6C877.599 84.5288 868.528 77.8538 856.205 77.8538C845.251 77.8538 837.207 84.5288 837.035 91.8884C837.035 98.2211 842.17 101.815 854.151 104.383L868.185 107.121C888.553 111.4 897.282 118.588 897.282 131.425C897.282 147.685 881.536 159.666 860.655 159.666Z" fill="white"/>
<mask id="mask0_853_681" style="mask-type:alpha" maskUnits="userSpaceOnUse" x="18" y="35" width="122" height="122">
<path d="M54.8543 37.2222C53.1137 35.4815 50.2916 35.4815 48.551 37.2222L20.1859 65.5873C18.4453 67.3279 18.4453 70.15 20.1859 71.8906C21.9265 73.6312 24.7486 73.6312 26.4892 71.8906L51.7026 46.6772L76.916 71.8906C78.6567 73.6312 81.4788 73.6312 83.2194 71.8906C84.96 70.15 84.96 67.3279 83.2194 65.5873L54.8543 37.2222ZM56.1598 109.905L56.1598 40.3738L47.2455 40.3738L47.2455 109.905L56.1598 109.905Z" fill="#AD1515"/>
<line x1="50.811" y1="40.3739" x2="139.954" y2="40.3739" stroke="url(#paint0_linear_853_681)" stroke-width="8.91429"/>
<line x1="135.497" y1="38.5911" x2="135.497" y2="109.905" stroke="#ED1111" stroke-width="8.91429"/>
<mask id="mask1_853_681" style="mask-type:alpha" maskUnits="userSpaceOnUse" x="47" y="63" width="93" height="94">
<circle cx="93.5999" cy="109.905" r="41.8971" stroke="black" stroke-width="8.91429"/>
</mask>
<g mask="url(#mask1_853_681)">
<rect x="42.7886" y="109.905" width="101.623" height="49.0286" fill="url(#paint1_linear_853_681)"/>
</g>
</mask>
<g mask="url(#mask0_853_681)">
<rect x="18.7197" y="35.9167" width="121.234" height="120.343" fill="white"/>
</g>
<defs>
<linearGradient id="paint0_linear_853_681" x1="50.811" y1="45.3311" x2="139.954" y2="45.3311" gradientUnits="userSpaceOnUse">
<stop stop-color="#AD1515"/>
<stop offset="1" stop-color="#ED1111"/>
</linearGradient>
<linearGradient id="paint1_linear_853_681" x1="42.7886" y1="134.42" x2="144.411" y2="134.42" gradientUnits="userSpaceOnUse">
<stop stop-color="#AD1515"/>
<stop offset="1" stop-color="#ED1111"/>
</linearGradient>
</defs>
</svg>
