<svg width="704" height="178" viewBox="0 0 704 178" fill="none" xmlns="http://www.w3.org/2000/svg">
<path d="M183.127 129.952V46.0667H193.003V129.952H183.127ZM232.284 132.332C220.98 132.332 213.365 124.717 213.365 113.77V77.3602H200.157V69.8641H213.365V52.0161L222.408 49.8743V69.8641H249.299V77.3602H222.408V112.818C222.408 119.601 226.573 124.479 233.117 124.479C239.185 124.479 244.777 120.076 245.967 112.342L253.345 115.436C251.679 125.907 242.517 132.332 232.284 132.332ZM290.608 132.332C271.451 132.332 257.411 118.411 257.411 99.2538C257.411 80.8109 270.261 67.4843 288.109 67.4843C305.719 67.4843 317.261 80.8109 317.499 99.3728C317.499 100.444 317.499 101.753 317.38 102.942H266.81C268.119 115.436 277.757 124.122 290.727 124.122C300.127 124.122 308.099 119.244 311.431 112.699L319.284 115.912C315.357 125.55 304.053 132.332 290.608 132.332ZM266.929 94.9703H307.861C306.671 82.7147 298.937 75.8134 287.99 75.8134C276.805 75.8134 268.595 83.5476 266.929 94.9703ZM328.115 129.952V69.8641H335.968L336.92 78.6691H337.039C340.608 71.6489 348.461 67.4843 358.099 67.4843C367.618 67.4843 374.044 71.8869 377.137 79.621H377.256C382.611 71.1729 390.94 67.4843 399.864 67.4843C412.952 67.4843 420.686 75.8134 420.686 89.9728V129.952H411.524V90.5678C411.524 81.2868 406.17 75.8134 397.127 75.8134C385.704 75.8134 378.922 84.3805 378.922 96.5171V129.952H369.879V90.5678C369.879 81.2868 364.525 75.8134 355.363 75.8134C343.94 75.8134 337.158 84.3805 337.158 96.5171V129.952H328.115ZM431.996 154.94V69.8641H439.849L440.801 80.2159H440.92C446.036 72.2438 454.246 67.4843 464.36 67.4843C481.97 67.4843 494.94 81.1678 494.94 99.9677C494.94 118.649 481.97 132.332 464.479 132.332C454.484 132.332 446.393 127.692 441.158 119.958H441.039V154.94H431.996ZM463.289 124.003C476.378 124.003 485.778 113.532 485.778 99.9677C485.778 86.0463 476.259 75.8134 463.289 75.8134C450.32 75.8134 440.801 86.2843 440.801 99.9677C440.801 113.532 450.32 124.003 463.289 124.003ZM524.136 132.332C510.453 132.332 500.934 124.955 500.934 114.246C500.934 104.608 508.549 96.8741 528.063 94.4943L542.936 92.7095C545.911 92.3526 547.814 90.6868 547.814 88.0691C547.814 80.5729 540.675 75.6944 530.204 75.6944C518.901 75.6944 510.929 82.9526 510.453 90.0918L502.242 86.6412C503.313 76.7653 514.974 67.4843 530.561 67.4843C545.911 67.4843 556.738 76.0514 556.738 89.4969V129.952H548.528L547.576 119.958H547.457C543.174 127.573 534.845 132.332 524.136 132.332ZM525.683 124.122C538.295 124.122 547.576 115.912 547.576 104.251V99.9677L529.015 102.228C514.498 104.013 509.977 108.654 509.977 114.127C509.977 120.195 516.521 124.122 525.683 124.122ZM592.932 132.332C577.939 132.332 565.565 124.598 564.494 111.747L573.418 109.963C574.132 118.292 582.223 124.122 592.932 124.122C602.332 124.122 609.59 119.72 609.59 113.532C609.59 108.892 605.187 106.036 595.074 104.013L585.555 102.109C573.061 99.4918 567.707 94.4943 567.707 85.6893C567.826 75.2185 577.107 67.4843 589.957 67.4843C602.57 67.4843 611.97 74.2666 614.23 84.0235L605.544 86.4032C604.711 80.0969 598.405 75.4565 589.838 75.4565C582.223 75.4565 576.631 80.0969 576.512 85.2134C576.512 89.6159 580.081 92.1146 588.41 93.8994L598.167 95.8032C612.327 98.7779 618.395 103.775 618.395 112.699C618.395 124.003 607.448 132.332 592.932 132.332ZM651.612 132.332C636.619 132.332 624.245 124.598 623.174 111.747L632.098 109.963C632.812 118.292 640.903 124.122 651.612 124.122C661.012 124.122 668.27 119.72 668.27 113.532C668.27 108.892 663.867 106.036 653.754 104.013L644.235 102.109C631.741 99.4918 626.387 94.4943 626.387 85.6893C626.506 75.2185 635.787 67.4843 648.637 67.4843C661.25 67.4843 670.65 74.2666 672.91 84.0235L664.224 86.4032C663.391 80.0969 657.085 75.4565 648.518 75.4565C640.903 75.4565 635.311 80.0969 635.192 85.2134C635.192 89.6159 638.761 92.1146 647.09 93.8994L656.847 95.8032C671.007 98.7779 677.075 103.775 677.075 112.699C677.075 124.003 666.128 132.332 651.612 132.332Z" fill="#25B7D6"/>
<circle cx="86.604" cy="89.0484" r="71.604" fill="url(#paint0_linear_853_692)"/>
<mask id="mask0_853_692" style="mask-type:alpha" maskUnits="userSpaceOnUse" x="47" y="61" width="67" height="67">
<path d="M67.5161 62.5578C66.5682 61.6099 65.0314 61.6099 64.0835 62.5578L48.6372 78.0041C47.6893 78.952 47.6893 80.4888 48.6372 81.4366C49.5851 82.3845 51.1219 82.3845 52.0697 81.4366L65.7998 67.7066L79.5299 81.4366C80.4777 82.3845 82.0145 82.3845 82.9624 81.4366C83.9103 80.4888 83.9103 78.952 82.9624 78.0041L67.5161 62.5578ZM68.227 102.138L68.227 64.274L63.3726 64.274L63.3726 102.138L68.227 102.138Z" fill="#AD1515"/>
<line x1="65.3145" y1="64.274" x2="113.858" y2="64.274" stroke="url(#paint1_linear_853_692)" stroke-width="4.85431"/>
<line x1="111.43" y1="63.3031" x2="111.43" y2="102.138" stroke="#ED1111" stroke-width="4.85431"/>
<mask id="mask1_853_692" style="mask-type:alpha" maskUnits="userSpaceOnUse" x="63" y="76" width="51" height="52">
<circle cx="88.6155" cy="102.138" r="22.8153" stroke="black" stroke-width="4.85431"/>
</mask>
<g mask="url(#mask1_853_692)">
<rect x="60.9463" y="102.138" width="55.3392" height="26.6987" fill="url(#paint2_linear_853_692)"/>
</g>
</mask>
<g mask="url(#mask0_853_692)">
<rect x="47.8389" y="61.8468" width="66.0187" height="65.5332" fill="white"/>
</g>
<defs>
<linearGradient id="paint0_linear_853_692" x1="158.208" y1="89.0484" x2="15" y2="89.0484" gradientUnits="userSpaceOnUse">
<stop stop-color="#25B7D6"/>
<stop offset="1" stop-color="#3385D0"/>
</linearGradient>
<linearGradient id="paint1_linear_853_692" x1="65.3145" y1="67.2012" x2="113.858" y2="67.2012" gradientUnits="userSpaceOnUse">
<stop stop-color="#AD1515"/>
<stop offset="1" stop-color="#ED1111"/>
</linearGradient>
<linearGradient id="paint2_linear_853_692" x1="60.9463" y1="115.487" x2="116.285" y2="115.487" gradientUnits="userSpaceOnUse">
<stop stop-color="#AD1515"/>
<stop offset="1" stop-color="#ED1111"/>
</linearGradient>
</defs>
</svg>
